<mxfile host="app.diagrams.net" modified="2023-10-27T07:25:58.152Z" agent="Mozilla/5.0 (Macintosh; Intel Mac OS X 10_15_7) AppleWebKit/605.1.15 (KHTML, like Gecko) Version/17.0 Safari/605.1.15" etag="wx8vqKlUOHcuzRp1miC9" version="22.0.8" type="github">
  <diagram name="Page-1" id="ZlU4e2kO0FCZW4NDMV1c">
    <mxGraphModel dx="474" dy="243" grid="1" gridSize="10" guides="1" tooltips="1" connect="1" arrows="1" fold="1" page="1" pageScale="1" pageWidth="850" pageHeight="1100" math="0" shadow="0">
      <root>
        <mxCell id="0" />
        <mxCell id="1" parent="0" />
      </root>
    </mxGraphModel>
  </diagram>
</mxfile>
